<mxfile host="app.diagrams.net" agent="Mozilla/5.0 (Macintosh; Intel Mac OS X 10_15_7) AppleWebKit/537.36 (KHTML, like Gecko) Chrome/130.0.0.0 Safari/537.36" version="24.8.6">
  <diagram name="Page-1" id="crMbwNu8B60nmEJdcC8u">
    <mxGraphModel dx="1107" dy="1290" grid="1" gridSize="10" guides="1" tooltips="1" connect="1" arrows="1" fold="1" page="1" pageScale="1" pageWidth="827" pageHeight="1169" math="0" shadow="0">
      <root>
        <mxCell id="0" />
        <mxCell id="1" parent="0" />
        <mxCell id="7Gphmlj1Qb_fQ4nPEXK_-2" value="&lt;p style=&quot;margin:0px;margin-top:4px;text-align:center;&quot;&gt;&lt;b&gt;FirstFragment&lt;/b&gt;&lt;/p&gt;&lt;hr size=&quot;1&quot; style=&quot;border-style:solid;&quot;&gt;&lt;p style=&quot;margin:0px;margin-left:4px;&quot;&gt;- param1: String&lt;/p&gt;&lt;p style=&quot;margin:0px;margin-left:4px;&quot;&gt;- param2: String&lt;/p&gt;&lt;hr size=&quot;1&quot; style=&quot;border-style:solid;&quot;&gt;&lt;p style=&quot;margin:0px;margin-left:4px;&quot;&gt;+ method(): Type&lt;/p&gt;&lt;p style=&quot;margin:0px;margin-left:4px;&quot;&gt;+ OnCreate(Bundle?)&lt;/p&gt;&lt;p style=&quot;margin:0px;margin-left:4px;&quot;&gt;+ OnCreateView(LayoutInflater, ViewGroup?, Bundle?): View?&amp;nbsp;&amp;nbsp;&lt;/p&gt;&lt;p style=&quot;margin:0px;margin-left:4px;&quot;&gt;+ newInstance(String, String): FirstFragment&lt;/p&gt;" style="verticalAlign=top;align=left;overflow=fill;html=1;whiteSpace=wrap;" vertex="1" parent="1">
          <mxGeometry x="190" y="160" width="346" height="140" as="geometry" />
        </mxCell>
        <mxCell id="7Gphmlj1Qb_fQ4nPEXK_-3" value="&lt;p style=&quot;margin:0px;margin-top:4px;text-align:center;&quot;&gt;&lt;b&gt;SecondFragment&lt;/b&gt;&lt;/p&gt;&lt;hr size=&quot;1&quot; style=&quot;border-style:solid;&quot;&gt;&lt;p style=&quot;margin:0px;margin-left:4px;&quot;&gt;&lt;span class=&quot;hljs-bullet&quot;&gt;-&lt;/span&gt; plantAdapter: PlantAdapter&amp;nbsp;&lt;/p&gt;&lt;p style=&quot;margin:0px;margin-left:4px;&quot;&gt;&lt;span class=&quot;hljs-section&quot;&gt;- plantList: MutableList&lt;span class=&quot;xml&quot;&gt;&lt;span class=&quot;hljs-tag&quot;&gt;&amp;lt;&lt;span class=&quot;hljs-name&quot;&gt;Plant&lt;/span&gt;&amp;gt;&lt;/span&gt;&lt;/span&gt;&lt;/span&gt;&lt;/p&gt;&lt;hr size=&quot;1&quot; style=&quot;border-style:solid;&quot;&gt;&lt;p style=&quot;margin:0px;margin-left:4px;&quot;&gt;&lt;span class=&quot;hljs-bullet&quot;&gt;+&lt;/span&gt; onCreateView(LayoutInflater, ViewGroup?, Bundle?): View?&lt;/p&gt;" style="verticalAlign=top;align=left;overflow=fill;html=1;whiteSpace=wrap;" vertex="1" parent="1">
          <mxGeometry x="196" y="340" width="346" height="100" as="geometry" />
        </mxCell>
        <mxCell id="7Gphmlj1Qb_fQ4nPEXK_-4" value="&lt;p style=&quot;margin:0px;margin-top:4px;text-align:center;&quot;&gt;&lt;b&gt;FragmentPageAdapter&lt;/b&gt;&lt;/p&gt;&lt;hr size=&quot;1&quot; style=&quot;border-style:solid;&quot;&gt;&lt;p style=&quot;margin:0px;margin-left:4px;&quot;&gt;- fragmentManager: FragmentManager&lt;/p&gt;&lt;p style=&quot;margin:0px;margin-left:4px;&quot;&gt;- lifecycle: Lifecycle&lt;/p&gt;&lt;hr size=&quot;1&quot; style=&quot;border-style:solid;&quot;&gt;&lt;p style=&quot;margin:0px;margin-left:4px;&quot;&gt;&lt;span class=&quot;hljs-bullet&quot;&gt;+&lt;/span&gt; getItemCount(): Int&amp;nbsp;&lt;/p&gt;&lt;p style=&quot;margin:0px;margin-left:4px;&quot;&gt;&lt;span class=&quot;hljs-bullet&quot;&gt;+&lt;/span&gt; createFragment(Int): Fragment&lt;/p&gt;" style="verticalAlign=top;align=left;overflow=fill;html=1;whiteSpace=wrap;" vertex="1" parent="1">
          <mxGeometry x="570" y="330" width="230" height="110" as="geometry" />
        </mxCell>
        <mxCell id="7Gphmlj1Qb_fQ4nPEXK_-6" value="&lt;p style=&quot;margin:0px;margin-top:4px;text-align:center;&quot;&gt;&lt;b&gt;MainActivity&lt;/b&gt;&lt;/p&gt;&lt;hr size=&quot;1&quot; style=&quot;border-style:solid;&quot;&gt;&lt;p style=&quot;margin:0px;margin-left:4px;&quot;&gt;- tabLayout: TabLayout&lt;/p&gt;&lt;p style=&quot;margin:0px;margin-left:4px;&quot;&gt;&lt;span class=&quot;hljs-bullet&quot;&gt;-&lt;/span&gt; viewPager2: ViewPager2&amp;nbsp;&lt;/p&gt;&lt;p style=&quot;margin:0px;margin-left:4px;&quot;&gt;&lt;span class=&quot;hljs-bullet&quot;&gt;-&lt;/span&gt; adapter: FragmentPageAdapter&amp;nbsp;&lt;/p&gt;&lt;p style=&quot;margin:0px;margin-left:4px;&quot;&gt;&lt;span class=&quot;hljs-section&quot;&gt;- plantsViewModel: PlantsViewModel&lt;/span&gt;&lt;/p&gt;&lt;hr size=&quot;1&quot; style=&quot;border-style:solid;&quot;&gt;&lt;p style=&quot;margin:0px;margin-left:4px;&quot;&gt;&lt;span class=&quot;hljs-bullet&quot;&gt;+&lt;/span&gt;&amp;nbsp;onCreate(Bundle?): Unit&lt;/p&gt;" style="verticalAlign=top;align=left;overflow=fill;html=1;whiteSpace=wrap;" vertex="1" parent="1">
          <mxGeometry x="590" y="160" width="220" height="130" as="geometry" />
        </mxCell>
        <mxCell id="7Gphmlj1Qb_fQ4nPEXK_-7" value="&lt;p style=&quot;margin:0px;margin-top:4px;text-align:center;&quot;&gt;&lt;b&gt;LoginActivity&lt;/b&gt;&lt;/p&gt;&lt;hr size=&quot;1&quot; style=&quot;border-style:solid;&quot;&gt;&lt;p style=&quot;margin:0px;margin-left:4px;&quot;&gt;(No attributes)&lt;/p&gt;&lt;hr size=&quot;1&quot; style=&quot;border-style:solid;&quot;&gt;&lt;p style=&quot;margin:0px;margin-left:4px;&quot;&gt;&lt;span class=&quot;hljs-bullet&quot;&gt;+&lt;/span&gt; onCreate(Bundle?): Unit&lt;/p&gt;" style="verticalAlign=top;align=left;overflow=fill;html=1;whiteSpace=wrap;" vertex="1" parent="1">
          <mxGeometry x="230" y="680" width="164" height="90" as="geometry" />
        </mxCell>
        <mxCell id="7Gphmlj1Qb_fQ4nPEXK_-8" value="&lt;p style=&quot;margin:0px;margin-top:4px;text-align:center;&quot;&gt;&lt;b&gt;Plant&lt;/b&gt;&lt;/p&gt;&lt;hr size=&quot;1&quot; style=&quot;border-style:solid;&quot;&gt;&lt;p style=&quot;margin:0px;margin-left:4px;&quot;&gt;+ name: String&lt;/p&gt;&lt;hr size=&quot;1&quot; style=&quot;border-style:solid;&quot;&gt;&lt;p style=&quot;margin:0px;margin-left:4px;&quot;&gt;&lt;span class=&quot;hljs-bullet&quot;&gt;+&lt;/span&gt; toString(): String&amp;nbsp;&lt;/p&gt;&lt;p style=&quot;margin:0px;margin-left:4px;&quot;&gt;&lt;span class=&quot;hljs-bullet&quot;&gt;+&lt;/span&gt; equals(Any?): Boolean&amp;nbsp;&lt;/p&gt;&lt;p style=&quot;margin:0px;margin-left:4px;&quot;&gt;&lt;span class=&quot;hljs-bullet&quot;&gt;+&lt;/span&gt; hashCode(): Int&lt;/p&gt;" style="verticalAlign=top;align=left;overflow=fill;html=1;whiteSpace=wrap;" vertex="1" parent="1">
          <mxGeometry x="648" y="490" width="152" height="110" as="geometry" />
        </mxCell>
        <mxCell id="7Gphmlj1Qb_fQ4nPEXK_-9" value="&lt;p style=&quot;margin:0px;margin-top:4px;text-align:center;&quot;&gt;&lt;b&gt;PlantAdapter&lt;/b&gt;&lt;/p&gt;&lt;hr size=&quot;1&quot; style=&quot;border-style:solid;&quot;&gt;&lt;p style=&quot;margin:0px;margin-left:4px;&quot;&gt;- plants:&amp;nbsp;&lt;span style=&quot;background-color: initial;&quot;&gt;List&lt;/span&gt;&lt;span style=&quot;background-color: initial;&quot; class=&quot;xml&quot;&gt;&amp;lt;&lt;span class=&quot;hljs-name&quot;&gt;Plant&lt;/span&gt;&amp;gt;&lt;/span&gt;&lt;/p&gt;&lt;hr size=&quot;1&quot; style=&quot;border-style:solid;&quot;&gt;&lt;p style=&quot;margin:0px;margin-left:4px;&quot;&gt;&lt;span class=&quot;hljs-bullet&quot;&gt;+&lt;/span&gt; onCreateViewHolder(ViewGroup, Int): PlantViewHolder&lt;br&gt;&lt;span class=&quot;hljs-bullet&quot;&gt;+&lt;/span&gt; onBindViewHolder(PlantViewHolder, Int): Unit&lt;br&gt;&lt;span class=&quot;hljs-section&quot;&gt;+ getItemCount(): Int&lt;/span&gt;&lt;/p&gt;&lt;p style=&quot;margin:0px;margin-left:4px;&quot;&gt;&lt;span class=&quot;hljs-section&quot;&gt;----------------------------------------------------------------------------------&lt;/span&gt;&lt;/p&gt;&lt;p style=&quot;margin:0px;margin-left:4px;&quot;&gt;&lt;span class=&quot;hljs-section&quot;&gt;Inner Class: PlantViewHolder&lt;/span&gt;&lt;/p&gt;&lt;p style=&quot;margin:0px;margin-left:4px;&quot;&gt;&lt;span class=&quot;hljs-section&quot;&gt;----------------------------------------------------------------------------------&lt;/span&gt;&lt;/p&gt;&lt;p style=&quot;margin:0px;margin-left:4px;&quot;&gt;&lt;span class=&quot;hljs-section&quot;&gt;&lt;span class=&quot;hljs-bullet&quot;&gt;+&lt;/span&gt; plantName: TextView&lt;/span&gt;&lt;/p&gt;" style="verticalAlign=top;align=left;overflow=fill;html=1;whiteSpace=wrap;" vertex="1" parent="1">
          <mxGeometry x="468" y="640" width="332" height="170" as="geometry" />
        </mxCell>
        <mxCell id="7Gphmlj1Qb_fQ4nPEXK_-10" value="&lt;p style=&quot;margin:0px;margin-top:4px;text-align:center;&quot;&gt;&lt;b&gt;PlantsViewModel&lt;/b&gt;&lt;/p&gt;&lt;hr size=&quot;1&quot; style=&quot;border-style:solid;&quot;&gt;&lt;p style=&quot;margin:0px;margin-left:4px;&quot;&gt;&lt;span class=&quot;hljs-deletion&quot;&gt;- _myPlants: MutableLiveData&amp;lt;MutableList&amp;lt;String&amp;gt;&amp;gt;&lt;/span&gt;&lt;br&gt;&lt;span class=&quot;hljs-addition&quot;&gt;+ myPlants: LiveData&amp;lt;MutableList&amp;lt;String&amp;gt;&amp;gt;&lt;/span&gt;&lt;/p&gt;&lt;hr size=&quot;1&quot; style=&quot;border-style:solid;&quot;&gt;&lt;pre class=&quot;!overflow-visible&quot;&gt;&lt;div class=&quot;contain-inline-size rounded-md border-[0.5px] border-token-border-medium relative bg-token-sidebar-surface-primary dark:bg-gray-950&quot;&gt;&lt;div dir=&quot;ltr&quot; class=&quot;overflow-y-auto p-4&quot;&gt;&lt;code class=&quot;!whitespace-pre hljs language-diff&quot;&gt;&lt;span class=&quot;hljs-addition&quot;&gt; + addPlant(String): Unit&lt;/span&gt;&lt;br&gt;&lt;/code&gt;&lt;/div&gt;&lt;/div&gt;&lt;/pre&gt;" style="verticalAlign=top;align=left;overflow=fill;html=1;whiteSpace=wrap;" vertex="1" parent="1">
          <mxGeometry x="200" y="490" width="394" height="110" as="geometry" />
        </mxCell>
      </root>
    </mxGraphModel>
  </diagram>
</mxfile>
